#N canvas -8 -8 1600 857 12;
#X floatatom 525 308 3 0 0 0 - - -;
#X floatatom 552 308 3 0 0 0 - - -;
#X floatatom 579 308 3 0 0 0 - - -;
#X floatatom 606 308 3 0 0 0 - - -;
#X floatatom 633 309 5 0 0 0 - - -;
#X obj 525 282 unpack 0 0 0 0 0;
#X msg 191 90 status;
#X floatatom 404 229 9 0 0 0 - - -;
#X obj 585 255 tgl 15 0 empty empty empty 17 7 0 10 -4034 -1 -1 0 1
;
#X floatatom 464 255 9 0 0 0 - - -;
#X text -10 90 get status on right outlet:;
#X text 297 229 bytes received:;
#X text 510 382 from:;
#X text 36 38 Creation arguments: port number to listen on (required)
;
#X obj 404 196 route received total from multicast;
#X text 175 56 IP address to listen on (optional);
#X text 486 360 Martin Peach 2010/10/15;
#X text -12 3 [udpreceive] receives datagrams over a udp connection
and outputs them as raw bytes.;
#N canvas 529 53 494 344 META 0;
#X text 12 155 HELP_PATCH_AUTHORS "pd meta" information added by Jonathan
Wilkes for Pd version 0.42.;
#X text 12 25 LICENSE GPL v2 or later;
#X text 12 135 AUTHOR Martin Peach;
#X text 12 5 KEYWORDS control network;
#X text 12 45 DESCRIPTION receive datagrams over a udp connection and
outputs them as raw bytes;
#X text 12 75 INLET_0 status port;
#X text 12 95 OUTLET_0 anything;
#X text 12 115 OUTLET_1 received total from multicast;
#X restore 657 396 pd META;
#X text 299 101 Specify a multicast address (from to 239.255.255.255)
to use multicasting;
#X obj 182 307 tof/from_ascii_code;
#X obj 158 236 t b l;
#X obj 183 405 unpack f f f;
#X obj 182 339 route data;
#X floatatom 130 446 5 0 0 0 - - -;
#X floatatom 212 442 5 0 0 0 - - -;
#X floatatom 309 441 5 0 0 0 - - -;
#X obj 127 495 vsl 15 128 -8 8 0 0 empty empty empty 0 -9 0 10 -262144
-1 -1 5286 1;
#X obj 230 153 mrpeach/udpreceive 4210;
#X obj 211 492 vsl 15 128 -8 8 0 0 empty empty empty 0 -9 0 10 -262144
-1 -1 6233 1;
#X obj 298 488 vsl 15 128 -8 8 0 0 empty empty empty 0 -9 0 10 -262144
-1 -1 6487 1;
#X text 358 556 COMPUTER IP MUST BE 192.168.4.100;
#X connect 5 0 0 0;
#X connect 5 1 1 0;
#X connect 5 2 2 0;
#X connect 5 3 3 0;
#X connect 5 4 4 0;
#X connect 6 0 28 0;
#X connect 14 0 7 0;
#X connect 14 1 9 0;
#X connect 14 2 5 0;
#X connect 14 3 8 0;
#X connect 20 0 23 0;
#X connect 21 0 20 0;
#X connect 21 1 20 0;
#X connect 22 0 24 0;
#X connect 22 1 25 0;
#X connect 22 2 26 0;
#X connect 23 0 22 0;
#X connect 24 0 27 0;
#X connect 25 0 29 0;
#X connect 26 0 30 0;
#X connect 28 0 21 0;
#X connect 28 1 14 0;
