#N canvas 10 23 1262 725 12;
#N canvas 0 22 450 300 (subpatch) 0;
#X array x 2252 float 2;
#X coords 0 -7 2252 7 1000 140 1 0 0;
#X restore 30 30 graph;
#N canvas 0 22 450 300 (subpatch) 0;
#X array y 2252 float 2;
#X coords 0 -7 2252 7 1000 140 1;
#X restore 30 185 graph;
#X obj 400 351 openpanel;
#X obj 400 332 bng 15 250 50 0 empty empty empty 17 7 0 10 -262144
-1 -1;
#X msg 398 375 set symbol \$1;
#X msg 397 403 symbol /Users/uqam/Documents/AgitPOV_WiFi/AgitPOVWIFI/record002.txt
;
#X obj 397 536 textfile;
#X obj 397 582 unpack 0 0;
#X obj 397 633 tabwrite x;
#X obj 464 609 tabwrite y;
#X obj 521 569 t f f;
#X obj 521 546 f;
#X obj 552 546 + 1;
#X msg 521 442 0;
#X obj 462 535 bng 15 250 50 0 empty empty empty 17 7 0 10 -262144
-1 -1;
#X obj 397 559 t a b;
#X obj 404 518 bng 15 250 50 0 empty empty empty 17 7 0 10 -262144
-1 -1;
#X floatatom 583 573 5 0 0 0 - - -;
#X msg 420 465 read \$1 cr \, rewind;
#X obj 351 493 until;
#X msg 351 470 2252;
#X obj 397 442 t b s b;
#X obj 699 505 s x;
#X obj 729 505 s y;
#X msg 701 476 resize 2252 \, bounds 0 -7 2252 7;
#X connect 2 0 4 0;
#X connect 3 0 2 0;
#X connect 4 0 5 0;
#X connect 5 0 21 0;
#X connect 6 0 15 0;
#X connect 6 1 14 0;
#X connect 7 0 8 0;
#X connect 7 1 9 0;
#X connect 10 0 8 1;
#X connect 10 1 9 1;
#X connect 11 0 10 0;
#X connect 11 0 12 0;
#X connect 12 0 11 1;
#X connect 12 0 17 0;
#X connect 13 0 11 0;
#X connect 15 0 7 0;
#X connect 15 1 11 0;
#X connect 16 0 6 0;
#X connect 18 0 6 0;
#X connect 19 0 6 0;
#X connect 20 0 19 0;
#X connect 21 0 20 0;
#X connect 21 1 18 0;
#X connect 21 2 13 0;
#X connect 24 0 22 0;
#X connect 24 0 23 0;
