#N canvas 140 63 391 195 12;
#X floatatom 222 117 5 0 0 0 - - -;
#X obj 93 73 t a a;
#X obj 179 78 counter 1000;
#X obj 37 27 inlet;
#X obj 116 38 spigot;
#X obj 186 28 inlet ctl;
#X obj 143 151 tabwrite \$1;
#X obj 309 54 r reset;
#X obj 312 95 bng 15 250 50 0 empty empty empty 17 7 0 10 -262144 -1
-1;
#X connect 0 0 6 1;
#X connect 1 0 6 0;
#X connect 1 1 2 0;
#X connect 2 0 0 0;
#X connect 3 0 4 0;
#X connect 4 0 1 0;
#X connect 5 0 4 1;
#X connect 7 0 8 0;
#X connect 8 0 2 2;
#X coords 0 -8 999 8 85 60 1 100 100;
